<?xml version="1.0" encoding="utf-8"?>
<svg x="0pt" y="0pt" width="1024pt" height="1024pt" viewBox="0 0 1024 1024" xmlns="http://www.w3.org/2000/svg" xmlns:xlink="http://www.w3.org/1999/xlink">
  <!--Generated by AMDN-->
  <g id="Layer_2">
    <g id="Path">
      <path style="fill:#000000;fill-opacity:1;fill-rule:nonzero;opacity:1;stroke:none;" d="M512.01,60 C761.542,59.9173,964.083,262.459,964,511.99 C964.083,761.542,761.542,964.083,512.01,964 C262.459,964.083,59.9173,761.542,60,512.01 C59.9173,262.458,262.458,59.9173,511.99,60 z M512.01,1.64632e-06 C229.326,-0.0936495,-0.0936495,229.326,1.64632e-06,512.01 C-0.0936516,794.674,229.326,1024.09,512.01,1024 C794.674,1024.09,1024.09,794.674,1024,511.99 C1024.09,229.326,794.674,-0.0936516,511.99,1.64639e-06 z"/>
    </g>
    <g id="Path-1">
      <path style="fill:#000000;fill-opacity:1;fill-rule:nonzero;opacity:1;stroke:none;" d="M512.08,242 C528.493,241.956,542.044,255.507,542,271.92 C542,271.92,542,272.08,542,272.08 C542.044,288.493,528.493,302.044,512.08,302 C512.08,302,511.92,302,511.92,302 C495.507,302.044,481.956,288.493,482,272.08 C482,272.08,482,271.92,482,271.92 C481.956,255.507,495.507,241.956,511.92,242 C511.92,242,512.08,242,512.08,242 z M511.92,182 C511.92,182,512.08,182,512.08,182 C462.405,181.868,421.868,222.405,422,272.08 C422,272.08,422,271.92,422,271.92 C421.868,321.595,462.405,362.132,512.08,362 C512.08,362,511.92,362,511.92,362 C561.595,362.132,602.133,321.595,602,271.92 C602,271.92,602,272.08,602,272.08 C602.133,222.405,561.595,181.868,511.92,182 z"/>
    </g>
    <g id="Path-2">
      <path style="fill:#000000;fill-opacity:1;fill-rule:nonzero;opacity:1;stroke:none;" d="M452,482 C492,482,532,482,572,482 C572,482,542,452,542,452 C542,572,542,692,542,812 C542,812,572,782,572,782 C532,782,492,782,452,782 C452,782,482,812,482,812 C482,692,482,572,482,452 C482,452,452,482,452,482 z M452,422 C452,422,422,422,422,422 C422,422,422,452,422,452 C422,572,422,692,422,812 C422,812,422,842,422,842 C422,842,452,842,452,842 C492,842,532,842,572,842 C572,842,602,842,602,842 C602,842,602,812,602,812 C602,692,602,572,602,452 C602,452,602,422,602,422 C602,422,572,422,572,422 C532,422,492,422,452,422 z"/>
    </g>
  </g>
</svg>
